<svg width="60" height="60" viewBox="0 0 60 60" fill="none" xmlns="http://www.w3.org/2000/svg">
<path fill-rule="evenodd" clip-rule="evenodd" d="M29.9998 0C46.5685 0 60 13.4313 60 29.9998C60 46.5687 46.5685 60 29.9998 60C13.4315 60.0005 0 46.5687 0 29.9998C0 13.4313 13.4315 0 29.9998 0Z" fill="black" fill-opacity="0.5"/>
<path d="M29.9998 1C46.0162 1 59 13.9836 59 29.9998C59 46.0164 46.0162 59 29.9998 59C13.9838 59.0005 1 46.0165 1 29.9998C1 13.9836 13.9838 1 29.9998 1Z" stroke="white" stroke-opacity="0.5" stroke-width="2"/>
<path fill-rule="evenodd" clip-rule="evenodd" d="M39.9013 17.6886C40.5668 17.0231 41.6454 17.0231 42.3114 17.6886C42.977 18.3541 42.977 19.4332 42.3114 20.0988L32.4092 29.9997L42.3109 39.9012C42.9765 40.5667 42.9765 41.6458 42.3109 42.3119C41.6454 42.9769 40.5668 42.9769 39.9008 42.3119L29.9995 32.4104L20.0982 42.3119C19.4332 42.9769 18.3536 42.9769 17.6881 42.3119C17.0226 41.6463 17.0226 40.5672 17.6881 39.9012L27.5894 29.9997L17.6881 20.0988C17.0226 19.4332 17.0226 18.3541 17.6881 17.6886C18.3536 17.0231 19.4327 17.0231 20.0982 17.6886L29.9995 27.5901L39.9013 17.6886Z" fill="white"/>
</svg>
