<svg viewBox="0 0 84 84" fill="none" xmlns="https://www.w3.org/2000/svg">
<path fill-rule="evenodd" clip-rule="evenodd" d="M76.1254 -0.000976562H7.87549C3.54424 -0.000976562 -0.0012207 3.54435 -0.0012207 7.87573V76.1256C-0.0012207 80.4568 3.54424 84.0022 7.87549 84.0022H76.1254C80.4566 84.0022 84.0021 80.4568 84.0021 76.1256V7.8756C84.0021 3.54435 80.4566 -0.000976562 76.1254 -0.000976562ZM47.7517 22.8105H57.3523V11.297H47.7517C40.3587 11.297 34.3268 17.3273 34.3268 24.7297V30.4841H26.6501V42.0006H34.3252V72.7042H45.8403V42.0006H55.4314L57.3521 30.4841H45.8402V24.7297C45.8402 23.6878 46.7193 22.809 47.7517 22.809V22.8104V22.8105Z" fill="white"/>
</svg>
