<svg viewBox="0 0 84 82" fill="none" xmlns="https://www.w3.org/2000/svg">
<path fill-rule="evenodd" clip-rule="evenodd" d="M41.9984 0.0464016C18.8072 0.0464016 0 18.8505 0 42.0447C0 60.6024 12.0327 76.3401 28.7209 81.8961C30.8214 82.2852 31.5935 80.983 31.5935 79.8731C31.5935 78.8716 31.5516 75.5635 31.5345 72.0569C19.8491 74.5977 17.3858 67.0993 17.3858 67.0993C15.4758 62.2439 12.7226 60.9527 12.7226 60.9527C8.91214 58.3436 13.0125 58.4009 13.0125 58.4009C17.2291 58.6956 19.449 62.7262 19.449 62.7262C23.1975 69.1472 29.2774 67.2884 31.6725 66.2171C32.0507 63.5028 33.1359 61.6487 34.3388 60.5993C25.0096 59.5405 15.203 55.9378 15.203 39.8434C15.203 35.2593 16.8462 31.511 19.5296 28.5716C19.0925 27.5114 17.6539 23.2421 19.9343 17.4582C19.9343 17.4582 23.4609 16.3281 31.4881 21.7632C34.8365 20.8346 38.4283 20.3664 41.9954 20.3509C45.5654 20.3664 49.1635 20.833 52.5167 21.7632C60.5329 16.3312 64.0564 17.4582 64.0564 17.4582C66.3399 23.2437 64.9076 27.516 64.4704 28.5718C67.1631 31.511 68.7925 35.2593 68.7925 39.8434C68.7925 55.9749 58.9641 59.5217 49.6146 60.562C51.1215 61.8641 52.4671 64.4205 52.4671 68.3363C52.4671 73.9528 52.419 78.4793 52.419 79.8606C52.419 80.9783 53.1755 82.2852 55.3055 81.8758C71.9842 76.3168 84.0016 60.5773 84.0016 42.0307C84.0016 18.8394 65.1975 0.0322266 42.0016 0.0322266L41.9986 0.0462704L41.9984 0.0464016Z" fill="white"/>
</svg>
