<svg viewBox="0 0 35 35" fill="none" xmlns="https://www.w3.org/2000/svg">
<path fill-rule="evenodd" clip-rule="evenodd" d="M23.441 17.5446L34.9998 29.4163V35H29.531V30.8027H24.9996V26.2083H20.6631L19.4095 22.0679C17.4129 23.4177 14.9907 24.2083 12.3805 24.2083C5.54427 24.2083 -0.000244141 18.7884 -0.000244141 12.1042C-0.000244141 5.41996 5.54427 0 12.3805 0C19.217 0 24.7607 5.42025 24.7607 12.1042C24.7607 14.0609 24.2847 15.9087 23.441 17.5446ZM10.6012 8.22624C11.8211 8.22624 12.8114 9.22943 12.8114 10.4671C12.8114 11.7048 11.8211 12.708 10.6012 12.708C9.38037 12.708 8.39087 11.7048 8.39087 10.4671C8.39058 9.22943 9.38037 8.22624 10.6012 8.22624Z" fill="white"/>
</svg>
