<svg viewBox="0 0 84 84" fill="none" xmlns="https://www.w3.org/2000/svg">
<path fill-rule="evenodd" clip-rule="evenodd" d="M76.1249 0H7.875C3.54375 0 0 3.54375 0 7.875V76.125C0 80.4562 3.54375 84 7.875 84H76.1249C80.4561 84 83.9999 80.4562 83.9999 76.125V7.875C83.9999 3.54375 80.4561 0 76.1249 0ZM31.4988 68.2499H21.0008V31.4989H31.4988V68.2499ZM26.2483 26.2483C23.3464 26.2483 20.9992 23.9013 20.9992 20.9992C20.9992 18.0957 23.3462 15.7487 26.2483 15.7487C29.1518 15.7487 31.4988 18.0957 31.4988 20.9992C31.4988 23.9011 29.1518 26.2483 26.2483 26.2483ZM68.2499 68.2499H57.7517V47.2507C57.7517 44.3471 55.4033 42.0001 52.5012 42.0001C49.5977 42.0001 47.2507 44.3471 47.2507 47.2507V68.2499H36.7493V31.4989H47.2507V38.0145C49.4131 35.0411 52.7306 31.4989 56.4372 31.4989C62.9682 31.4989 68.2497 37.3742 68.2497 44.6246V68.2499H68.2499Z" fill="white"/>
</svg>
