<svg viewBox="0 0 24 31" fill="none" xmlns="https://www.w3.org/2000/svg">
<path fill-rule="evenodd" clip-rule="evenodd" d="M0.722187 13.9933H2.95942V13.7248V9.26882C2.95942 6.72044 4.0025 4.4033 5.68086 2.72443V2.72219C7.35997 1.04308 9.67761 0 12.2277 0C14.7759 0 17.093 1.04308 18.7721 2.72219L18.7746 2.72443C20.453 4.4033 21.4961 6.72044 21.4961 9.26882V13.7248V13.9933H23.2781C23.6751 13.9933 24.0002 14.3184 24.0002 14.7152V29.9635C24.0002 30.3603 23.6751 30.6855 23.2781 30.6855H0.722187C0.325134 30.6855 0 30.3603 0 29.9635V14.7152C0 14.3184 0.325134 13.9933 0.722187 13.9933ZM6.56037 13.9933H17.8944V13.7248V9.21738C17.8944 7.65913 17.2566 6.24148 16.2307 5.21438L16.2295 5.21538C15.2029 4.18804 13.7855 3.55001 12.2277 3.55001C10.6692 3.55001 9.25184 4.18779 8.224 5.21438C7.1979 6.24148 6.56037 7.65913 6.56037 9.21738V13.7251V13.9933ZM12.2734 22.3369L13.4174 27.6157L10.2817 27.6289L11.2019 22.2792C10.3451 22.0045 9.72406 21.2016 9.72406 20.2537C9.72406 19.0798 10.6755 18.1284 11.8499 18.1284C13.0231 18.1284 13.9753 19.0798 13.9753 20.2537C13.9753 21.2826 13.2441 22.1408 12.2734 22.3369Z" fill="white"/>
</svg>
