<?xml version="1.0" standalone="no"?>
<!DOCTYPE svg PUBLIC "-//W3C//DTD SVG 20010904//EN"
 "http://www.w3.org/TR/2001/REC-SVG-20010904/DTD/svg10.dtd">
<svg version="1.0" xmlns="http://www.w3.org/2000/svg"
 width="512.000000pt" height="512.000000pt" viewBox="0 0 512.000000 512.000000"
 preserveAspectRatio="xMidYMid meet">
<metadata>
Created by potrace 1.14, written by Peter Selinger 2001-2017
</metadata>
<g transform="translate(0.000000,512.000000) scale(0.100000,-0.100000)"
fill="#000000" stroke="none">
<path d="M0 3535 l0 -1575 738 1 c797 1 879 5 1074 55 118 29 264 82 346 125
31 16 58 29 59 29 2 0 3 -488 3 -1085 l0 -1085 1450 0 1450 0 0 1770 0 1770
-1075 0 -1075 0 -1 83 c-2 128 -15 279 -29 337 -5 19 -11 51 -14 70 -7 40 -18
83 -41 160 -20 67 -21 70 -84 200 -186 382 -544 612 -1071 690 -36 5 -83 12
-105 16 -22 4 -397 9 -832 11 l-793 4 0 -1576z"/>
</g>
</svg>
